<?xml version="1.0" standalone="no"?>
<!DOCTYPE svg PUBLIC "-//W3C//DTD SVG 20010904//EN"
 "http://www.w3.org/TR/2001/REC-SVG-20010904/DTD/svg10.dtd">
<svg version="1.0" xmlns="http://www.w3.org/2000/svg"
 width="512.000000pt" height="512.000000pt" viewBox="0 0 512.000000 512.000000"
 preserveAspectRatio="xMidYMid meet">

<g transform="translate(0.000000,512.000000) scale(0.100000,-0.100000)"
fill="#000000" stroke="none">
<path d="M1845 4349 c-179 -26 -338 -104 -474 -233 -109 -105 -175 -210 -227
-366 l-29 -85 0 -1300 0 -1300 32 -67 c78 -166 257 -261 429 -229 152 28 261
120 321 271 17 42 18 137 23 1575 l5 1530 27 57 c15 32 48 80 74 108 l47 50
-84 -1 c-46 -1 -111 -5 -144 -10z"/>
<path d="M2230 4347 c-87 -24 -155 -81 -202 -170 -22 -40 -23 -56 -26 -275
l-3 -232 878 2 878 3 56 26 c79 37 133 90 171 167 29 59 33 76 32 147 0 64 -5
91 -26 135 -38 81 -89 134 -166 172 l-67 33 -740 2 c-564 1 -751 -1 -785 -10z"/>
<path d="M2000 2535 l0 -345 495 0 c482 0 496 1 552 22 80 29 162 112 192 193
19 50 22 74 19 145 -6 122 -54 208 -154 273 -81 54 -116 57 -631 57 l-473 0 0
-345z"/>
</g>
</svg>
